<svg width="33" height="29" viewBox="0 0 33 29" fill="none" xmlns="http://www.w3.org/2000/svg">
<path d="M1.46171 11.4597H5.84682V29.0002H1.46171C1.07404 29.0002 0.702246 28.8462 0.428123 28.572C0.154001 28.2979 0 27.9261 0 27.5385V12.9214C0 12.5337 0.154001 12.1619 0.428123 11.8878C0.702246 11.6137 1.07404 11.4597 1.46171 11.4597ZM9.19851 9.56972L18.5534 0.214805C18.6778 0.090113 18.8429 0.0145031 19.0186 0.001881C19.1942 -0.0107411 19.3685 0.0404731 19.5094 0.146105L20.7562 1.0816C21.1025 1.34155 21.3641 1.69822 21.5079 2.10663C21.6518 2.51503 21.6715 2.95688 21.5645 3.37647L19.8792 9.998H29.2341C30.0094 9.998 30.753 10.306 31.3013 10.8542C31.8495 11.4025 32.1575 12.1461 32.1575 12.9214V15.9968C32.1579 16.3789 32.0834 16.7573 31.9383 17.1107L27.4143 28.0954C27.3039 28.3632 27.1165 28.5922 26.8758 28.7533C26.635 28.9143 26.3519 29.0003 26.0622 29.0002H10.2319C9.84427 29.0002 9.47248 28.8462 9.19836 28.572C8.92423 28.2979 8.77023 27.9261 8.77023 27.5385V10.6031C8.77031 10.2155 8.92437 9.84378 9.19851 9.56972Z" fill="#F7F7F7"/>
</svg>
