<svg width="40" height="40" viewBox="0 0 40 40" fill="none" xmlns="http://www.w3.org/2000/svg">
<g clip-path="url(#clip0_19_1588)">
<path d="M4.99992 5H34.9999C35.4419 5 35.8659 5.17559 36.1784 5.48816C36.491 5.80072 36.6666 6.22464 36.6666 6.66667V33.3333C36.6666 33.7754 36.491 34.1993 36.1784 34.5118C35.8659 34.8244 35.4419 35 34.9999 35H4.99992C4.55789 35 4.13397 34.8244 3.82141 34.5118C3.50885 34.1993 3.33325 33.7754 3.33325 33.3333V6.66667C3.33325 6.22464 3.50885 5.80072 3.82141 5.48816C4.13397 5.17559 4.55789 5 4.99992 5ZM20.0999 19.4717L9.41325 10.3967L7.25492 12.9367L20.1216 23.8617L32.7566 12.9283L30.5766 10.4067L20.1016 19.4717H20.0999Z" fill="#F7F7F7"/>
</g>
<defs>
<clipPath id="clip0_19_1588">
<rect width="40" height="40" fill="white"/>
</clipPath>
</defs>
</svg>
